HIERARCHY
ROOT Hips
{
  OFFSET 19.6225 93.5595 -110.879
  CHANNELS 6 Xposition Yposition Zposition Zrotation Xrotation Yrotation
  JOINT ToSpine
  {
    OFFSET -2.69724 7.43032 -0.144315
    CHANNELS 3 Zrotation Xrotation Yrotation
    JOINT Spine
    {
      OFFSET -0.0310711 10.7595 1.96963
      CHANNELS 3 Zrotation Xrotation Yrotation
      JOINT Spine1
      {
        OFFSET 13.1342 3.43533 0.764692
        CHANNELS 3 Zrotation Xrotation Yrotation
        JOINT Neck
        {
          OFFSET 29.8703 7.82586 -0.130764
          CHANNELS 3 Zrotation Xrotation Yrotation
          JOINT Head
          {
            OFFSET 9.52751 0.295786 -0.907742
            CHANNELS 3 Zrotation Xrotation Yrotation
            End Site
            {
              OFFSET 16.4037 0.713936 2.7358
            }
          }
        }
        JOINT LeftShoulder
        {
          OFFSET 27.5574 4.95586 2.47156
          CHANNELS 3 Zrotation Xrotation Yrotation
          JOINT LeftArm
          {
            OFFSET 1.20734 -0.998971 20.1238
            CHANNELS 3 Zrotation Xrotation Yrotation
            JOINT LeftForeArm
            {
              OFFSET 26.8049 -0.0536703 -0.155908
              CHANNELS 3 Zrotation Xrotation Yrotation
              JOINT LeftHand
              {
                OFFSET 26.6817 0 0.320147
                CHANNELS 3 Zrotation Xrotation Yrotation
                End Site
                {
                  OFFSET 18.6119 0 0.382219
                }
              }
            }
          }
        }
        JOINT RightShoulder
        {
          OFFSET 27.5927 4.71444 -2.65209
          CHANNELS 3 Zrotation Xrotation Yrotation
          JOINT RightArm
          {
            OFFSET 2.83739 -1.17114 -18.7564
            CHANNELS 3 Zrotation Xrotation Yrotation
            JOINT RightForeArm
            {
              OFFSET 28.839 -0.0548439 1.22491
              CHANNELS 3 Zrotation Xrotation Yrotation
              JOINT RightHand
              {
                OFFSET 26.5114 0 -0.101894
                CHANNELS 3 Zrotation Xrotation Yrotation
                End Site
                {
                  OFFSET 18.2168 0 0
                }
              }
            }
          }
        }
      }
    }
  }
  JOINT LeftUpLeg
  {
    OFFSET -4.76168 -1.9167 -10.2353
    CHANNELS 3 Zrotation Xrotation Yrotation
    JOINT LeftLeg
    {
      OFFSET 2.55951 -42.0585 -8.02213
      CHANNELS 3 Zrotation Xrotation Yrotation
      JOINT LeftFoot
      {
        OFFSET 3.16357 -42.5282 -3.95426
        CHANNELS 3 Zrotation Xrotation Yrotation
        JOINT LeftToeBase
        {
          OFFSET 0.346054 -6.02161 12.8035
          CHANNELS 3 Zrotation Xrotation Yrotation
          End Site
          {
            OFFSET 0.134235 -1.35082 5.13018
          }
        }
      }
    }
  }
  JOINT RightUpLeg
  {
    OFFSET -4.94151 -1.41743 10.6446
    CHANNELS 3 Zrotation Xrotation Yrotation
    JOINT RightLeg
    {
      OFFSET -2.56294 -42.0364 -7.94377
      CHANNELS 3 Zrotation Xrotation Yrotation
      JOINT RightFoot
      {
        OFFSET -3.0952 -42.555 -4.02241
        CHANNELS 3 Zrotation Xrotation Yrotation
        JOINT RightToeBase
        {
          OFFSET -0.0828122 -6.13587 12.8035
          CHANNELS 3 Zrotation Xrotation Yrotation
          End Site
          {
            OFFSET -0.131328 -1.35082 5.13018
          }
        }
      }
    }
  }
}
MOTION
Frames:	20
Frame Time:	0.0333333
18.9332 92.2475 -315.161 -3.83843 -59.0124 -90.3307 -70.1915 0 88.8779 87.6046 66.0152 -0.0275477 -1.21664 15.212 3.79558 -156.602 15.759 179.916 -157.99 55.8819 -160.903 0.892805 -11.1027 -29.0559 -89.1603 45.4084 -67.6886 21.6948 -7.71289 -107.84 0.420957 0.000575445 0.35866 -2.17185 6.73009 46.9465 -69.0773 -39.7472 52.0096 14.7736 -5.76028 69.1484 0.58676 0.000331017 0.0646653 -64.7088 -1.0099 91.5617 -3.68516 41.9456 -15.7166 -8.26622 8.74559 2.287 4.89008 -7.67039 -10.2128 -9.52517 2.2507 79.3398 4.11582 43.5769 14.0308 -6.65632 12.5428 0.740474 -1.25094 -33.1072 -38.1176 
18.7245 91.8072 -303.619 -8.69507 -59.7826 -96.8092 -70.1915 0 88.8779 82.1362 66.5721 5.67454 0.634843 16.9535 2.60216 -157.007 15.8311 179.957 -158.834 55.9238 -161.27 0.871475 -11.2946 -28.8179 -87.8451 45.3374 -65.637 25.1659 -11.0808 -111.451 0.420957 0.000575445 0.35866 -2.10596 6.63133 46.3604 -70.6575 -39.5722 50.5199 14.0465 -4.58986 72.2133 0.58676 0.000331017 0.0646653 -67.6524 -3.32109 91.8197 -3.96814 45.5135 -15.9737 -9.13803 13.4993 3.21454 -2.86199 4.55531 2.71652 -12.6584 5.05248 81.2083 2.15992 33.2591 9.80851 0.8156 8.53815 -0.634992 2.03642 -25.6266 -18.3724 
18.7812 91.0578 -293.274 -6.44751 -62.2411 -95.1277 -70.1915 0 88.8779 88.5772 66.462 -1.53472 -0.304339 16.6085 3.35143 -156.431 16.5109 179.767 -158.59 56.5829 -161.181 0.742238 -11.9823 -29.1355 -83.898 45.7226 -67.4494 24.2634 -9.94279 -110.009 0.420957 0.000575445 0.35866 -2.04574 6.35577 46.5647 -71.5666 -37.429 53.3508 13.1064 -3.37087 75.6914 0.58676 0.000331017 0.0646653 -64.4603 -4.31811 90.0045 -5.56047 58.313 -7.13735 -7.93771 8.9886 2.25076 1.50681 -5.95943 9.01327 -14.6096 4.26116 80.996 2.53681 39.8397 8.27706 -2.42666 7.04856 0.046384 2.25985 -22.8188 -16.7651 
18.7694 90.2534 -282.806 -4.78627 -66.5324 -93.2603 -70.1915 0 88.8779 102.744 66.3319 -15.235 -2.14391 16.5157 3.72667 -154.912 17.8 -179.994 -157.489 57.7962 -161.285 0.573425 -12.6901 -30.2446 -80.0925 46.5531 -68.9478 23.0056 -5.89996 -102.901 0.420957 0.000575445 0.35866 -2.03448 6.26052 46.8613 -73.6652 -34.4575 58.9608 13.8303 -3.1362 77.3289 0.58676 0.000331017 0.0646653 -59.043 -3.64845 90.0434 -11.7157 73.0398 4.95014 -4.8623 4.83352 1.11165 3.13052 -9.61078 13.4305 -20.4773 3.81275 80.5912 2.8286 50.4586 1.72945 -7.40286 -6.0044 1.1972 1.14907 -5.91494 -8.09725 
17.8506 89.3873 -272.524 -8.90075 -67.9889 -94.0609 -70.1915 0 88.8779 111.696 67.4207 -19.5654 -1.11724 18.0419 2.97851 -155.722 19.4639 179.571 -155.602 59.327 -163.72 0.44937 -13.0449 -31.7174 -77.3191 47.9873 -69.9564 24.579 -1.0863 -92.7645 0.420957 0.000575445 0.35866 -2.0967 6.33703 47.2992 -75.9558 -32.3102 67.6125 16.9465 -4.06451 76.8528 0.58676 0.000331017 0.0646653 -48.2275 3.15636 90.1113 -47.2461 84.6611 44.123 -1.99362 -1.09141 0.0638639 5.21903 -13.013 14.2572 -26.7854 8.48496 79.5083 2.95036 55.5224 -4.78591 -9.76114 -18.7611 1.26302 0.402514 0.827017 -3.23989 
17.0763 89.2009 -262.808 -19.4049 -66.0446 -103.045 -70.1915 0 88.8779 116.179 71.067 -20.4975 -0.479266 22.3447 1.5978 -157.506 21.263 178.108 -154.136 60.9267 -167.487 0.31557 -13.3953 -33.4879 -76.164 49.3821 -67.6994 29.4443 2.39188 -84.1144 0.420957 0.000575445 0.35866 -2.25013 6.89686 46.3682 -77.2484 -32.0916 76.4211 18.132 -3.84826 78.2351 0.58676 0.000331017 0.0646653 -33.5989 9.15799 92.3736 -121.347 85.47 119.366 0.955468 -5.21934 -0.577829 7.40857 -16.441 16.5108 -31.6296 15.1836 84.5881 3.64635 56.4225 -0.86839 -9.62294 -22.3745 1.25895 3.60739 -4.32157 -24.2139 
17.1933 90.0789 -252.777 -13.3004 -67.3878 -99.6894 -70.1915 0 88.8779 118.619 71.5189 -27.4235 -2.1777 23.0725 3.75349 -156.209 22.9013 175.954 -153.647 62.4963 -168.456 0.498613 -12.5975 -33.528 -74.0057 51.7462 -63.3546 25.5857 4.22627 -80.9091 0.420957 0.000575445 0.35866 -2.16455 7.23031 43.7721 -77.3915 -34.6272 83.5926 18.4305 -2.27575 83.2112 0.58676 0.000331017 0.0646653 -23.1639 5.81613 92.2957 -60.8399 85.6431 60.772 1.4824 -7.75177 -0.79244 9.25341 -19.0297 18.5221 -40.5968 10.2797 84.5583 3.58461 55.6804 -0.60564 -6.52034 -25.4654 1.54722 2.6218 -7.43926 -17.3844 
17.378 91.6434 -241.663 -8.39578 -67.6984 -96.119 -70.1915 0 88.8779 117.059 72.8878 -27.632 -3.99202 24.1344 4.36732 -152.105 24.4924 172.682 -152.64 64.144 -168.468 0.858811 -11.0712 -31.4897 -70.2514 56.1466 -59.9658 23.4109 3.97804 -80.2397 0.420957 0.000575445 0.35866 -1.8673 6.87682 41.2486 -76.2902 -37.5751 87.2886 19.8879 0.164988 90.3818 0.58676 0.000331017 0.0646653 -16.9463 3.65924 93.1522 -11.0767 74.4486 10.1024 0.357928 -9.40466 -0.855592 7.62861 -16.8298 19.5299 -49.8068 6.85528 84.2449 3.59089 52.1996 1.85423 -5.17399 -18.2603 1.4236 2.14622 -17.9269 -11.1141 
17.6622 93.424 -229.781 -5.79054 -68.2175 -93.8143 -70.1915 0 88.8779 109.622 75.2207 -19.9195 -2.42022 25.5036 3.5397 -149.847 26.0794 171.34 -153.023 65.8805 -167.927 1.04982 -10.1779 -29.347 -69.8475 59.2562 -54.5697 24.8433 4.28945 -80.1787 0.420957 0.000575445 0.35866 -1.71013 6.78254 39.4727 -74.5545 -39.4546 88.783 21.0154 3.17365 97.7577 0.58676 0.000331017 0.0646653 -16.7472 2.8947 94.6347 -3.45871 54.172 -0.738307 -5.03479 -3.9886 0.0790529 7.33205 -16.325 16.415 -59.1146 4.6242 83.5134 2.67419 47.1321 1.94625 -4.11276 -4.01776 0.854846 3.85225 -26.7448 4.8892 
18.0698 95.0861 -217.654 -4.48751 -68.4363 -93.0751 -70.1915 0 88.8779 92.4206 77.0157 -2.0388 1.20298 26.7541 1.49669 -148.722 27.0222 170.704 -153.861 66.9136 -167.691 1.0261 -10.3156 -27.4927 -72.8966 61.4803 -47.639 24.1742 4.49243 -79.4707 0.420957 0.000575445 0.35866 -1.59253 6.5064 38.9641 -73.3731 -39.2351 88.6819 23.4922 6.34241 103.998 0.58676 0.000331017 0.0646653 -19.5247 1.76715 95.5786 -2.01319 32.0748 -5.18854 -11.2438 7.96416 2.74029 5.65526 -13.4987 12.3215 -66.0331 3.40848 84.7799 3.02129 43.7619 6.85917 -1.80704 9.06264 -0.158514 3.21863 -26.0641 1.77378 
18.2517 95.8791 -205.902 -3.12899 -69.0568 -91.3579 -70.1915 0 88.8779 74.0284 77.0452 16.8714 4.92746 27.6324 0.297877 -147.626 27.4938 169.935 -153.1 67.3971 -168.766 1.15518 -9.63059 -25.1031 -75.7188 62.8796 -43.5989 24.2607 4.91678 -78.6251 0.420957 0.000575445 0.35866 -1.56966 6.41549 38.8694 -73.3165 -39.3985 86.9476 23.9535 8.66422 108.418 0.58676 0.000331017 0.0646653 -21.7335 0.99767 93.9215 -2.43928 19.5494 -5.62353 -12.3891 16.2922 4.54272 3.82133 -9.86293 7.93832 -69.7905 4.25226 88.0638 3.28123 46.2596 9.26118 -0.455817 13.8843 -0.813351 2.33131 -20.1567 -14.8909 
18.3911 95.2376 -194.695 -5.22218 -70.5358 -92.6633 -70.1915 0 88.8779 74.0984 76.8388 17.0647 4.47085 27.7596 0.308562 -146.176 27.0034 170.124 -154.455 67.0329 -167.355 1.33618 -8.0347 -23.3285 -78.5087 63.6216 -39.7872 24.2594 4.49633 -79.5185 0.420957 0.000575445 0.35866 -1.66563 6.66646 39.2736 -72.3624 -39.7674 85.2137 23.2458 9.54 110.779 0.58676 0.000331017 0.0646653 -22.1663 2.34114 94.8085 -2.8654 21.3355 -2.77999 -12.9725 18.897 5.17884 2.41413 -6.04621 2.92251 -68.54 4.9461 90.3553 3.70919 57.4565 -1.89985 -4.40553 12.0596 0.256032 2.3296 -19.5115 -9.24802 
18.6987 93.7352 -183.676 -9.13902 -73.3371 -96.3488 -70.1915 0 88.8779 80.962 77.0406 9.19863 3.59421 27.3789 1.66895 -145.179 26.2553 170.818 -156.214 66.3557 -165.559 1.42039 -7.52784 -23.944 -81.7956 62.4841 -35.8602 24.7646 4.31821 -80.1137 0.420957 0.000575445 0.35866 -1.74313 6.72016 40.3101 -72.8803 -39.0961 82.0217 22.3336 8.77768 110.056 0.58676 0.000331017 0.0646653 -25.6344 3.71966 98.8964 -3.40119 28.606 -10.564 -12.5323 17.8362 4.82424 1.12964 -2.50062 -0.285829 -65.2362 3.31341 89.1181 6.16547 70.9382 -12.379 -9.58833 9.83507 1.42771 2.04713 -15.3923 -6.44514 
19.2116 91.722 -173.543 -11.4522 -76.1161 -99.9482 -70.1915 0 88.8779 93.3248 76.461 -5.82888 1.82607 26.6557 2.68839 -143.93 25.386 171.939 -157.27 65.5047 -163.685 1.54327 -6.75907 -24.6789 -81.2976 60.3961 -38.4908 24.2455 4.65775 -79.1598 0.420957 0.000575445 0.35866 -1.80961 6.44196 42.2554 -73.8144 -37.4924 78.7964 22.2938 6.68011 105.467 0.58676 0.000331017 0.0646653 -29.1387 2.78529 102.652 -2.82875 39.7495 -15.8147 -3.43364 5.4802 0.896759 -2.41896 8.66992 -5.11008 -59.0186 -0.178547 87.8533 16.4825 83.0806 -29.7583 -13.7322 5.10445 2.15289 1.99333 -16.239 -2.1996 
19.814 89.9368 -164.624 -7.71193 -76.998 -98.9507 -70.1915 0 88.8779 97.1485 75.0647 -13.1351 1.24608 25.5666 2.24557 -144.092 24.5254 172.547 -158.608 64.6711 -162.145 1.70196 -6.07289 -26.5944 -78.3754 56.7868 -47.323 25.7886 6.34826 -76.5006 0.420957 0.000575445 0.35866 -1.80066 6.00175 43.9298 -74.2115 -35.7872 78.0103 22.2888 2.86854 96.9191 0.58676 0.000331017 0.0646653 -29.146 -2.65019 100.751 -4.52174 52.6444 -7.07732 6.33862 -8.79484 -1.06416 -3.1451 7.64132 -1.6483 -47.6423 -4.7012 88.8823 143.434 86.2972 -161.772 -13.0897 -1.61693 1.78302 1.92459 -15.8124 1.4953 
20.156 89.4605 -156.33 2.26417 -76.7634 -90.7825 -70.1915 0 88.8779 92.4514 73.7858 -11.0998 3.18565 23.5797 2.3223 -147.266 24.4836 174.363 -160.912 64.4249 -161.461 1.45202 -7.93105 -28.915 -77.7202 51.401 -55.6882 30.397 9.12565 -74.2681 0.420957 0.000575445 0.35866 -1.9257 6.06545 45.8957 -75.6894 -34.5709 76.9801 19.8069 -0.768229 87.6179 0.58676 0.000331017 0.0646653 -30.4137 -8.41268 95.898 -5.65445 58.9262 -5.94656 5.33341 -10.6803 -1.13435 0.0545047 -3.96488 11.2028 -35.092 -6.47801 89.2141 151.297 85.2086 -167.723 -14.8161 -4.8281 1.81571 2.32218 -19.0818 -5.81114 
20.1046 90.0448 -148.39 2.18069 -77.1267 -89.5591 -70.1915 0 88.8779 102.435 73.003 -18.2844 2.10772 23.2129 1.10847 -145.573 24.7505 174.99 -159.947 64.6706 -160.56 1.14074 -9.64875 -28.9943 -79.7127 49.0509 -59.3202 35.5824 9.99397 -75.7182 0.420957 0.000575445 0.35866 -2.10128 6.3782 47.2339 -76.6422 -33.4994 73.2124 16.3556 -2.26673 82.105 0.58676 0.000331017 0.0646653 -34.2884 -7.14039 95.5815 -7.2224 63.3904 -5.56729 4.95177 -12.6392 -1.17504 2.41777 -7.70728 9.65509 -26.9405 -3.33357 88.2969 18.0647 83.5357 -32.454 -14.7765 -4.51893 1.85813 2.3972 -21.3569 -9.52446 
19.9482 91.368 -140.147 6.24087 -76.8655 -84.8995 -70.1915 0 88.8779 106.658 72.0866 -23.2151 -0.219721 22.1507 3.35813 -143.918 24.4402 174.844 -156.827 64.3132 -162.602 1.14949 -9.59343 -28.228 -82.4474 49.8714 -59.7907 31.8134 6.39311 -79.1843 0.420957 0.000575445 0.35866 -2.14718 6.33835 48.1467 -73.7359 -32.6246 71.7728 14.9524 -2.59174 80.2547 0.58676 0.000331017 0.0646653 -37.6594 -5.0928 96.1831 -8.95227 66.7069 -6.06354 1.90011 -10.9072 -1.02248 3.96559 -9.94863 7.15727 -23.9461 -1.25342 88.0564 1.79366 63.7976 -9.91141 -10.6497 1.78691 1.51021 2.28657 -20.5105 -12.4897 
19.8903 92.9943 -131.056 20.3078 -75.1771 -69.4761 -70.1915 0 88.8779 99.0324 71.0728 -15.2911 1.46305 20.2954 3.881 -142.851 24.1126 172.199 -151.483 63.9467 -167.848 1.15702 -9.54151 -27.7925 -83.3845 52.1475 -60.412 27.8247 4.83582 -80.276 0.420957 0.000575445 0.35866 -2.03571 5.83132 49.2096 -71.4886 -31.0455 71.4061 17.5755 -3.46613 79.0326 0.58676 0.000331017 0.0646653 -40.1339 -3.76882 94.6152 -10.6904 69.126 -5.37702 0.370551 -4.66567 -0.503195 5.298 -11.5247 0.853517 -27.7707 -0.735321 86.5324 0.611779 36.9056 8.77566 1.99085 14.6361 -1.46482 2.50055 -13.5885 -21.9603 
19.8807 93.9259 -121.881 31.545 -73.9508 -56.5773 -70.1915 0 88.8779 99.6951 70.3335 -14.6052 1.47413 19.5326 4.4412 -141.523 25.0838 170.826 -149.644 64.974 -169.248 1.16846 -9.53202 -28.3269 -82.115 53.5081 -61.9799 27.6043 4.85523 -80.1475 0.420957 0.000575445 0.35866 -1.92881 5.57049 49.0387 -70.822 -31.9646 70.5291 16.8291 -3.48162 78.4507 0.58676 0.000331017 0.0646653 -41.7284 -1.48851 92.7509 -13.4484 72.6763 -3.78112 -0.344488 0.525829 0.00424184 5.49274 -12.1826 3.72152 -33.2615 0.242739 85.0955 1.55994 20.0294 26.8294 9.41789 25.1932 -5.03156 3.95906 -7.6614 -31.004 
